<svg width="200" height="60" viewBox="0 0 200 60" fill="none" xmlns="http://www.w3.org/2000/svg">
<path d="M99.5 3L105.45 21.3111H124.703L109.127 32.6279L115.076 50.9389L99.5 39.6221L83.9237 50.9389L89.8733 32.6279L74.297 21.3111H93.5504L99.5 3Z" fill="#CC0000"/>
<path d="M137.241 19.2759L141.004 31.1775H153.18L143.329 38.5331L147.092 50.4346L137.241 43.0791L127.391 50.4346L131.153 38.5331L121.303 31.1775H133.479L137.241 19.2759Z" fill="#CC0000"/>
<path d="M62.7586 19.2759L66.5212 31.1775H78.697L68.8465 38.5331L72.6091 50.4346L62.7586 43.0791L52.9082 50.4346L56.6707 38.5331L46.8202 31.1775H58.9961L62.7586 19.2759Z" fill="#CC0000"/>
</svg>